<svg width="18" height="10" viewBox="0 0 18 10" fill="none" xmlns="http://www.w3.org/2000/svg">
<path fill-rule="evenodd" clip-rule="evenodd" d="M12.1687 0.302922C12.5537 -0.0930631 13.1868 -0.10198 13.5828 0.283006L17.6971 4.28301C17.8907 4.47129 18 4.7299 18 5C18 5.2701 17.8907 5.52871 17.6971 5.717L13.5828 9.717C13.1868 10.102 12.5537 10.0931 12.1687 9.69708C11.7837 9.30109 11.7927 8.66799 12.1886 8.28301L14.5369 6H1C0.447715 6 0 5.55229 0 5C0 4.44772 0.447715 4 1 4H14.5369L12.1886 1.717C11.7927 1.33201 11.7837 0.698908 12.1687 0.302922Z" fill="#332200"/>
</svg>
