<svg width="32" height="32" viewBox="0 0 32 32" fill="none" xmlns="http://www.w3.org/2000/svg">
<path d="M25.9472 13.3333C25.8157 13.5277 25.7378 13.7534 25.7214 13.9875C25.705 14.2216 25.7507 14.4559 25.8539 14.6667C26.1846 15.4387 26.4179 16.2493 26.5472 17.08C26.8905 19.2269 26.5695 21.4273 25.6272 23.3867C25.5128 23.6016 25.3417 23.7811 25.1325 23.9056C24.9233 24.0302 24.684 24.0951 24.4406 24.0933H7.57391C7.32907 24.0938 7.08882 24.0269 6.8795 23.8999C6.67018 23.7729 6.49987 23.5907 6.38724 23.3733C5.53374 21.6419 5.1661 19.7113 5.32348 17.7874C5.48087 15.8635 6.1574 14.0183 7.28095 12.4487C8.4045 10.879 9.93294 9.64362 11.7034 8.87426C13.4738 8.1049 15.4198 7.8304 17.3339 8.08C18.3024 8.19384 19.2497 8.44526 20.1472 8.82667C20.358 8.92983 20.5923 8.97553 20.8264 8.95914C21.0606 8.94275 21.2862 8.86486 21.4806 8.73334C21.6831 8.59993 21.8454 8.41382 21.95 8.19504C22.0546 7.97626 22.0975 7.73309 22.0742 7.49172C22.0509 7.25034 21.9622 7.01989 21.8176 6.82518C21.6731 6.63046 21.4782 6.47886 21.2539 6.38667C18.6782 5.28221 15.8199 5.01745 13.0851 5.63C10.3503 6.24255 7.8781 7.70126 6.01958 9.79891C4.16106 11.8966 3.01077 14.5265 2.73211 17.3152C2.45344 20.1038 3.06056 22.9094 4.46724 25.3333C4.69992 25.7364 5.03403 26.0715 5.43635 26.3054C5.83867 26.5393 6.2952 26.6639 6.76057 26.6667H25.2272C25.6971 26.6685 26.1592 26.5462 26.5666 26.3121C26.974 26.0779 27.3123 25.7403 27.5472 25.3333C28.5771 23.5486 29.1793 21.5494 29.3065 19.4928C29.4337 17.4362 29.0826 15.3781 28.2806 13.48C28.179 13.2637 28.0211 13.0786 27.8235 12.9442C27.6259 12.8098 27.3958 12.731 27.1573 12.716C26.9188 12.701 26.6806 12.7504 26.4678 12.859C26.2549 12.9676 26.0751 13.1314 25.9472 13.3333Z" fill="url(#paint0_linear_14_910)"/>
<path d="M14.1203 16.7868C13.62 17.2872 13.3389 17.9658 13.3389 18.6734C13.3389 19.0238 13.4079 19.3708 13.542 19.6945C13.6761 20.0182 13.8726 20.3124 14.1203 20.5601C14.3681 20.8079 14.6622 21.0044 14.986 21.1385C15.3097 21.2726 15.6566 21.3416 16.007 21.3416C16.7147 21.3416 17.3933 21.0605 17.8937 20.5601L25.4403 9.24011L14.1203 16.7868Z" fill="url(#paint1_linear_14_910)"/>
<defs>
<linearGradient id="paint0_linear_14_910" x1="15.999" y1="5.30762" x2="15.999" y2="26.6667" gradientUnits="userSpaceOnUse">
<stop stop-color="#FFBF00"/>
<stop offset="1" stop-color="#F2A50C"/>
</linearGradient>
<linearGradient id="paint1_linear_14_910" x1="19.3896" y1="9.24011" x2="19.3896" y2="21.3416" gradientUnits="userSpaceOnUse">
<stop stop-color="#FFBF00"/>
<stop offset="1" stop-color="#F2A50C"/>
</linearGradient>
</defs>
</svg>
