<svg width="148" height="36" viewBox="0 0 148 36" fill="none" xmlns="http://www.w3.org/2000/svg">
<g clip-path="url(#clip0_14_11)">
<path d="M53.624 35.52V0H44.648L25.88 27.408L22.712 23.424C28.376 22.56 31.544 17.568 31.544 12.24C31.544 7.152 28.76 2.88 25.016 1.248C23.144 0.432 20.36 0 16.664 0H5V35.52H13.688V24.048H13.784L21.992 35.52H31.16L34.28 30.384H44.552V35.52H53.624ZM13.688 17.856V7.968H17.144C20.552 7.968 22.856 9.696 22.856 12.768C22.856 16.032 20.696 17.856 17.096 17.856H13.688ZM44.552 23.184H38.6L44.456 13.344H44.552V23.184ZM90.03 35.52V0H81.342L81.726 22.464L67.902 0H60.078V35.52H68.766L68.526 13.824L82.158 35.52H90.03ZM116.228 35.52V27.552H105.188V21.456H115.892V13.488H105.188V7.968H116.228V0H96.5V35.52H116.228ZM152.29 35.52L139.762 17.712L151.522 0H142.018L131.986 15.984H131.89V0H122.818V35.52H131.89V20.16H131.986L141.682 35.52H152.29Z" fill="#9C9C9C"/>
</g>
<defs>
<clipPath id="clip0_14_11">
<rect width="148" height="36" fill="white"/>
</clipPath>
</defs>
</svg>
